<svg xmlns="http://www.w3.org/2000/svg" width="24" height="24" viewBox="0 0 24 24" fill="none">
  <path fill="currentColor" fill-rule="evenodd" clip-rule="evenodd" d="M14.41 11.48 14.23 11.57 12.64 11.87 12.26 11.87 12.82 11.05 13.46 10.28 13.76 10.54 14.11 10.97ZM16.21 4.7 15.87 4.78 15.44 5 14.96 5.47 14.66 6.16 14.66 6.89 14.92 7.53 15.35 8 16.04 8.35 16.77 8.39 17.24 8.26 17.54 8.09 18.06 7.57 18.27 7.14 18.36 6.37 18.19 5.73 17.97 5.38 17.67 5.08 16.98 4.74ZM19.48 1.13 19.05 1 18.7 1 17.5 1.17 16.34 1.47 14.66 2.2 13.76 2.76 12.9 3.45 12.04 4.35 11.4 5.21 10.37 6.76 9.25 8.73 8.13 10.97 7.45 12.69 6.63 14.28 5.51 16.81 4.65 19.05 3.88 21.37 3.88 21.71 4.01 22.14 4.14 22.36 4.57 22.74 4.95 22.91 5.51 22.96 6.03 22.74 6.33 22.4 8 17.84 8.91 15.87 10.5 19.39 11.91 22.27 12.17 22.53 12.52 22.7 13.12 22.7 13.68 22.44 14.02 22.1 14.19 21.8 14.28 21.41 14.23 20.94 12.52 17.37 11.18 14.41 11.18 14.23 12.09 14.15 16.3 13.33 16.51 13.2 16.77 12.86 16.86 12.64 16.86 12 16.55 10.97 15.95 9.85 15.35 9.08 14.45 8.18 14.15 7.57 13.07 6.59 13.8 5.6 14.41 5 15.61 4.14 16.51 3.71 17.24 3.45 18.4 3.19 19.52 3.06 19.82 2.89 20.04 2.55 20.08 2.07 19.99 1.73 19.82 1.43Z"/>
</svg>
