<svg xmlns="http://www.w3.org/2000/svg" viewBox="0 0 900 506" role="img" aria-labelledby="title desc">
  <title id="title">孕期蛋黄营养核验样例封面</title>
  <desc id="desc">淡青色医学科普背景中的鸡蛋、蛋黄和营养核验标识</desc>
  <defs>
    <linearGradient id="bg" x1="0" y1="0" x2="1" y2="1">
      <stop offset="0" stop-color="#e9faf6"/>
      <stop offset="0.52" stop-color="#d5f4ec"/>
      <stop offset="1" stop-color="#bfe9df"/>
    </linearGradient>
    <radialGradient id="yolk" cx="42%" cy="35%" r="65%">
      <stop offset="0" stop-color="#ffd875"/>
      <stop offset="1" stop-color="#f4a51f"/>
    </radialGradient>
    <filter id="shadow" x="-30%" y="-30%" width="160%" height="170%">
      <feDropShadow dx="0" dy="12" stdDeviation="14" flood-color="#0b6e63" flood-opacity=".16"/>
    </filter>
  </defs>
  <rect width="900" height="506" rx="42" fill="url(#bg)"/>
  <circle cx="760" cy="68" r="124" fill="#fff" opacity=".34"/>
  <circle cx="90" cy="440" r="174" fill="#fff" opacity=".25"/>
  <g opacity=".22" fill="none" stroke="#0b8f80" stroke-width="3">
    <path d="M52 92h112M108 36v112"/>
    <circle cx="108" cy="92" r="32"/>
    <path d="M748 370h92M794 324v92"/>
  </g>
  <g transform="translate(86 72)">
    <rect width="418" height="54" rx="18" fill="#fff" opacity=".82"/>
    <circle cx="29" cy="27" r="9" fill="#20cdb6"/>
    <text x="51" y="35" fill="#0b6e63" font-family="Microsoft YaHei, PingFang SC, sans-serif" font-size="23" font-weight="700">孕期营养 · 权威依据核验</text>
  </g>
  <g transform="translate(86 174)">
    <text fill="#092f35" font-family="Microsoft YaHei, PingFang SC, sans-serif" font-size="46" font-weight="800">
      <tspan x="0" y="0">孕妇吃鸡蛋</tspan>
      <tspan x="0" y="66">要不要丢蛋黄？</tspan>
    </text>
    <text x="2" y="160" fill="#53777a" font-family="Microsoft YaHei, PingFang SC, sans-serif" font-size="22">从营养价值到胆固醇风险，一次讲清</text>
  </g>
  <g transform="translate(605 255) rotate(-9)" filter="url(#shadow)">
    <path d="M-118-13C-95-94 3-125 83-85c73 36 103 126 51 190-48 59-149 62-215 18-53-36-58-88-37-136Z" fill="#fff"/>
    <circle cx="16" cy="17" r="67" fill="url(#yolk)"/>
    <circle cx="-5" cy="-8" r="17" fill="#fff" opacity=".25"/>
  </g>
  <g transform="translate(744 363)">
    <path d="M0-44 43-28v31c0 34-19 59-43 71-24-12-43-37-43-71v-31L0-44Z" fill="#0b9f8e" stroke="#fff" stroke-width="8"/>
    <path d="m-21 10 14 14 29-33" fill="none" stroke="#fff" stroke-width="9" stroke-linecap="round" stroke-linejoin="round"/>
  </g>
</svg>
